SplineFontDB: 3.2
FontName: FredokaOne-Regular
FullName: Fredoka One
FamilyName: Fredoka One
Weight: Book
Copyright: Copyright (c) 2011 Milena B Brandao (milenabbrandao@gmail.com), with Reserved Font Name "Fredoka"
Version: 1.001
ItalicAngle: 0
UnderlinePosition: -100
UnderlineWidth: 50
Ascent: 800
Descent: 200
InvalidEm: 0
sfntRevision: 0x00010041
LayerCount: 2
Layer: 0 1 "Back" 1
Layer: 1 1 "Fore" 0
XUID: [1021 820 -133215056 2562913]
StyleMap: 0x0040
FSType: 0
OS2Version: 2
OS2_WeightWidthSlopeOnly: 0
OS2_UseTypoMetrics: 0
CreationTime: 1322448352
ModificationTime: 1331490397
PfmFamily: 17
TTFWeight: 400
TTFWidth: 5
LineGap: 0
VLineGap: 0
Panose: 2 0 0 0 0 0 0 0 0 0
OS2TypoAscent: 974
OS2TypoAOffset: 0
OS2TypoDescent: -236
OS2TypoDOffset: 0
OS2TypoLinegap: 0
OS2WinAscent: 974
OS2WinAOffset: 0
OS2WinDescent: 236
OS2WinDOffset: 0
HheadAscent: 974
HheadAOffset: 0
HheadDescent: -236
HheadDOffset: 0
OS2SubXSize: 700
OS2SubYSize: 650
OS2SubXOff: 0
OS2SubYOff: 140
OS2SupXSize: 700
OS2SupYSize: 650
OS2SupXOff: 0
OS2SupYOff: 477
OS2StrikeYSize: 50
OS2StrikeYPos: 250
OS2CapHeight: 733
OS2XHeight: 527
OS2Vendor: 'ssde'
OS2CodePages: 20000001.00000000
OS2UnicodeRanges: 8000002f.4000004a.00000000.00000000
Lookup: 1 0 0 "'ordn' Ordinals in Latin lookup 0" { "'ordn' Ordinals in Latin lookup 0 subtable"  } ['ordn' ('latn' <'dflt' > ) ]
Lookup: 1 0 0 "'sups' Superscript in Latin lookup 1" { "'sups' Superscript in Latin lookup 1 subtable" ("superior") } ['sups' ('latn' <'dflt' > ) ]
Lookup: 4 0 0 "'frac' Diagonal Fractions in Latin lookup 2" { "'frac' Diagonal Fractions in Latin lookup 2 subtable"  } ['frac' ('latn' <'dflt' > ) ]
Lookup: 4 0 1 "'liga' Standard Ligatures in Latin lookup 3" { "'liga' Standard Ligatures in Latin lookup 3 subtable"  } ['liga' ('latn' <'dflt' > ) ]

StartChar: percent
Encoding: 37 37 1
Width: 838
GlyphClass: 3
Flags: W
LayerCount: 2
Fore
SplineSet
506 321 m 128,-1,1
 551 372 551 372 631.5 372 c 128,-1,2
 712 372 712 372 755 322 c 128,-1,3
 798 272 798 272 798 183.5 c 128,-1,4
 798 95 798 95 755 46.5 c 128,-1,5
 712 -2 712 -2 633 -2 c 128,-1,6
 554 -2 554 -2 507.5 48.5 c 128,-1,7
 461 99 461 99 461 184.5 c 128,-1,0
 461 270 461 270 506 321 c 128,-1,1
629 118 m 0,8,9
 690 118 690 118 690 186 c 0,10,11
 690 222 690 222 675.5 237 c 128,-1,12
 661 252 661 252 629.5 252 c 128,-1,13
 598 252 598 252 584 236.5 c 128,-1,14
 570 221 570 221 570 185 c 128,-1,15
 570 149 570 149 584.5 133.5 c 128,-1,16
 599 118 599 118 629 118 c 0,8,9
85 685 m 128,-1,18
 130 736 130 736 210 736 c 128,-1,19
 290 736 290 736 333.5 686 c 128,-1,20
 377 636 377 636 377 548 c 128,-1,21
 377 460 377 460 333.5 411.5 c 128,-1,22
 290 363 290 363 211.5 363 c 128,-1,23
 133 363 133 363 86.5 413 c 128,-1,24
 40 463 40 463 40 548.5 c 128,-1,17
 40 634 40 634 85 685 c 128,-1,18
208 483 m 0,25,26
 268 483 268 483 268 550 c 0,27,28
 268 586 268 586 254 601 c 128,-1,29
 240 616 240 616 208.5 616 c 128,-1,30
 177 616 177 616 162.5 600.5 c 128,-1,31
 148 585 148 585 148 549.5 c 128,-1,32
 148 514 148 514 163 498.5 c 128,-1,33
 178 483 178 483 208 483 c 0,25,26
577 761 m 2,34,35
 590 784 590 784 602.5 784 c 128,-1,36
 615 784 615 784 639 771 c 128,-1,37
 663 758 663 758 663 743 c 0,38,39
 663 736 663 736 656 724 c 2,40,-1
 269 -7 l 1,41,-1
 267 -10 l 2,42,43
 256 -30 256 -30 244 -30 c 128,-1,44
 232 -30 232 -30 208 -17.5 c 128,-1,45
 184 -5 184 -5 184 7 c 128,-1,46
 184 19 184 19 191 31 c 2,47,-1
 577 761 l 2,34,35
EndSplineSet
Ligature2: "'frac' Diagonal Fractions in Latin lookup 2 subtable" zero slash zero
EndChar

StartChar: parenleft
Encoding: 40 40 2
Width: 384
GlyphClass: 2
Flags: W
LayerCount: 2
Fore
SplineSet
262.5 -76.5 m 128,-1,1
 284 -99 284 -99 303 -99 c 128,-1,2
 322 -99 322 -99 330.5 -100 c 128,-1,3
 339 -101 339 -101 349.5 -107 c 128,-1,4
 360 -113 360 -113 364.5 -127 c 128,-1,5
 369 -141 369 -141 369 -164 c 128,-1,6
 369 -187 369 -187 364.5 -200.5 c 128,-1,7
 360 -214 360 -214 349 -220 c 0,8,9
 332 -228 332 -228 304 -228 c 0,10,11
 236 -228 236 -228 181.5 -180.5 c 128,-1,12
 127 -133 127 -133 95 -58 c 0,13,14
 30 96 30 96 30 272 c 0,15,16
 30 447 30 447 92 600 c 0,17,18
 124 678 124 678 179 726.5 c 128,-1,19
 234 775 234 775 305 775 c 0,20,21
 335 775 335 775 348 768 c 0,22,23
 369 755 369 755 369 710 c 0,24,25
 369 663 369 663 351 654 c 0,26,27
 337 646 337 646 310 646 c 2,28,-1
 304 646 l 2,29,30
 265 646 265 646 224 557 c 0,31,32
 205 514 205 514 192.5 439.5 c 128,-1,33
 180 365 180 365 180 273 c 128,-1,34
 180 181 180 181 192 107 c 128,-1,35
 204 33 204 33 222.5 -10.5 c 128,-1,0
 241 -54 241 -54 262.5 -76.5 c 128,-1,1
EndSplineSet
EndChar

StartChar: parenright
Encoding: 41 41 3
Width: 384
GlyphClass: 2
Flags: W
LayerCount: 2
Fore
SplineSet
53.5 -100 m 128,-1,1
 62 -99 62 -99 81 -99 c 128,-1,2
 100 -99 100 -99 121.5 -76.5 c 128,-1,3
 143 -54 143 -54 162 -10 c 0,4,5
 204 89 204 89 204 274 c 0,6,7
 204 365 204 365 191.5 439.5 c 128,-1,8
 179 514 179 514 160 557 c 0,9,10
 119 646 119 646 80 646 c 2,11,-1
 74 646 l 2,12,13
 47 646 47 646 35 652 c 0,14,15
 15 663 15 663 15 707.5 c 128,-1,16
 15 752 15 752 31 763.5 c 128,-1,17
 47 775 47 775 79 775 c 0,18,19
 150 775 150 775 205 726.5 c 128,-1,20
 260 678 260 678 292 600 c 0,21,22
 354 447 354 447 354 272 c 0,23,24
 354 96 354 96 289 -58 c 0,25,26
 257 -133 257 -133 202.5 -180.5 c 128,-1,27
 148 -228 148 -228 80 -228 c 0,28,29
 29 -228 29 -228 20 -200 c 0,30,31
 15 -187 15 -187 15 -164 c 128,-1,32
 15 -141 15 -141 19.5 -127 c 128,-1,33
 24 -113 24 -113 34.5 -107 c 128,-1,0
 45 -101 45 -101 53.5 -100 c 128,-1,1
EndSplineSet
EndChar

StartChar: comma
Encoding: 44 44 4
Width: 238
GlyphClass: 2
Flags: W
LayerCount: 2
Fore
SplineSet
66 179.5 m 128,-1,1
 86 186 86 186 130 186 c 128,-1,2
 174 186 174 186 193.5 166.5 c 128,-1,3
 213 147 213 147 213 91 c 0,4,5
 213 70 213 70 210 52 c 0,6,7
 201 -33 201 -33 154 -96 c 128,-1,8
 107 -159 107 -159 44 -159 c 0,9,10
 37 -159 37 -159 31.5 -148.5 c 128,-1,11
 26 -138 26 -138 26 -121.5 c 128,-1,12
 26 -105 26 -105 30.5 -95 c 128,-1,13
 35 -85 35 -85 42 -82.5 c 128,-1,14
 49 -80 49 -80 56.5 -74.5 c 128,-1,15
 64 -69 64 -69 77 -48 c 128,-1,16
 90 -27 90 -27 92 0 c 1,17,18
 60 4 60 4 42.5 21.5 c 128,-1,19
 25 39 25 39 25.5 78.5 c 128,-1,20
 26 118 26 118 27.5 129.5 c 128,-1,21
 29 141 29 141 37.5 157 c 128,-1,0
 46 173 46 173 66 179.5 c 128,-1,1
EndSplineSet
EndChar

StartChar: hyphen
Encoding: 45 45 5
Width: 433
GlyphClass: 2
Flags: W
LayerCount: 2
Fore
SplineSet
335 139 m 2,0,-1
 97 139 l 2,1,2
 41 139 41 139 30 173 c 0,3,4
 25 191 25 191 25 219 c 128,-1,5
 25 247 25 247 31 264 c 128,-1,6
 37 281 37 281 50 288 c 0,7,8
 68 297 68 297 98 297 c 2,9,-1
 336 297 l 2,10,11
 392 297 392 297 402 264 c 0,12,13
 408 246 408 246 408 218 c 128,-1,14
 408 190 408 190 402.5 172.5 c 128,-1,15
 397 155 397 155 385 148 c 0,16,17
 367 139 367 139 335 139 c 2,0,-1
EndSplineSet
EndChar

StartChar: period
Encoding: 46 46 6
Width: 237
GlyphClass: 2
Flags: W
LayerCount: 2
Fore
SplineSet
195 165 m 0,0,1
 212 148 212 148 212 95 c 2,2,-1
 212 91 l 2,3,4
 212 67 212 67 210.5 55.5 c 128,-1,5
 209 44 209 44 200 28 c 0,6,7
 185 -1 185 -1 124.5 -1 c 128,-1,8
 64 -1 64 -1 44.5 18 c 128,-1,9
 25 37 25 37 25 90 c 2,10,-1
 25 94 l 2,11,12
 25 117 25 117 26.5 129 c 128,-1,13
 28 141 28 141 36 156 c 0,14,15
 51 186 51 186 111.5 186 c 128,-1,16
 172 186 172 186 195 165 c 0,0,1
EndSplineSet
EndChar

StartChar: slash
Encoding: 47 47 7
Width: 526
GlyphClass: 2
Flags: W
LayerCount: 2
Fore
SplineSet
176 -8 m 2,0,1
 168 -25 168 -25 163.5 -33 c 128,-1,2
 159 -41 159 -41 148.5 -48.5 c 128,-1,3
 138 -56 138 -56 121 -56 c 128,-1,4
 104 -56 104 -56 71 -41 c 128,-1,5
 38 -26 38 -26 26.5 -14.5 c 128,-1,6
 15 -3 15 -3 15 11 c 128,-1,7
 15 25 15 25 27 61 c 1,8,-1
 349 734 l 2,9,10
 368 772 368 772 383 778 c 0,11,12
 391 782 391 782 406.5 782 c 128,-1,13
 422 782 422 782 457 766 c 0,14,15
 511 740 511 740 511 709 c 0,16,17
 511 696 511 696 497 659 c 2,18,-1
 176 -8 l 2,0,1
EndSplineSet
EndChar

StartChar: zero
Encoding: 48 48 8
Width: 608
GlyphClass: 2
Flags: W
LayerCount: 2
Fore
SplineSet
182.5 716.5 m 128,-1,1
 235 744 235 744 304 744 c 128,-1,2
 373 744 373 744 424.5 717 c 128,-1,3
 476 690 476 690 505.5 650 c 128,-1,4
 535 610 535 610 553 556 c 0,5,6
 583 466 583 466 583 365 c 0,7,8
 583 184 583 184 505 78 c 0,9,10
 476 38 476 38 424.5 12 c 128,-1,11
 373 -14 373 -14 305 -14 c 128,-1,12
 237 -14 237 -14 184.5 12.5 c 128,-1,13
 132 39 132 39 102.5 78 c 128,-1,14
 73 117 73 117 54 171 c 0,15,16
 25 257 25 257 25 366 c 0,17,18
 25 466 25 466 48.5 537 c 128,-1,19
 72 608 72 608 101 648.5 c 128,-1,0
 130 689 130 689 182.5 716.5 c 128,-1,1
303 164 m 0,20,21
 406 164 406 164 406 360 c 2,22,-1
 406 366 l 2,23,24
 406 567 406 567 304 567 c 128,-1,25
 202 567 202 567 202 365.5 c 128,-1,26
 202 164 202 164 303 164 c 0,20,21
EndSplineSet
EndChar

StartChar: one
Encoding: 49 49 9
Width: 407
GlyphClass: 2
Flags: W
LayerCount: 2
Fore
SplineSet
218 708 m 1,0,1
 244 734 244 734 274.5 734 c 128,-1,2
 305 734 305 734 322 729 c 128,-1,3
 339 724 339 724 348 717.5 c 128,-1,4
 357 711 357 711 362 696 c 0,5,6
 367 679 367 679 367 643 c 2,7,-1
 367 86 l 2,8,9
 367 63 367 63 365.5 51.5 c 128,-1,10
 364 40 364 40 356 25 c 0,11,12
 342 -2 342 -2 278 -2 c 0,13,14
 216 -2 216 -2 201 24 c 0,15,16
 193 39 193 39 191.5 51.5 c 128,-1,17
 190 64 190 64 190 88 c 2,18,-1
 190 445 l 1,19,-1
 177 433 l 1,20,21
 136 402 136 402 107 402 c 128,-1,22
 78 402 78 402 46.5 437 c 128,-1,23
 15 472 15 472 15 499 c 128,-1,24
 15 526 15 526 51 558 c 2,25,-1
 215 706 l 1,26,-1
 218 708 l 1,0,1
EndSplineSet
Substitution2: "'sups' Superscript in Latin lookup 1 subtable" onesuperior
EndChar

StartChar: two
Encoding: 50 50 10
Width: 609
GlyphClass: 2
Flags: W
LayerCount: 2
Fore
SplineSet
506 176 m 2,0,1
 547 176 547 176 564.5 166.5 c 128,-1,2
 582 157 582 157 588 137.5 c 128,-1,3
 594 118 594 118 594 86.5 c 128,-1,4
 594 55 594 55 587.5 36 c 128,-1,5
 581 17 581 17 566 10 c 0,6,7
 544 -2 544 -2 504 -2 c 2,8,-1
 113 -2 l 2,9,10
 77 -2 77 -2 51 25 c 128,-1,11
 25 52 25 52 25 88 c 0,12,13
 25 142 25 142 62.5 187.5 c 128,-1,14
 100 233 100 233 153 265.5 c 128,-1,15
 206 298 206 298 259 329.5 c 128,-1,16
 312 361 312 361 349.5 401 c 128,-1,17
 387 441 387 441 387 486 c 0,18,19
 387 495 387 495 380 511.5 c 128,-1,20
 373 528 373 528 364.5 538.5 c 128,-1,21
 356 549 356 549 338 558 c 128,-1,22
 320 567 320 567 288 567 c 128,-1,23
 256 567 256 567 232.5 543.5 c 128,-1,24
 209 520 209 520 206 497 c 2,25,-1
 202 474 l 1,26,-1
 202 468 l 2,27,28
 202 446 202 446 200.5 435 c 128,-1,29
 199 424 199 424 191 410 c 0,30,31
 176 386 176 386 113 386 c 0,32,33
 43 386 43 386 30 424 c 0,34,35
 25 440 25 440 25 475 c 0,36,37
 25 579 25 579 99.5 661.5 c 128,-1,38
 174 744 174 744 294.5 744 c 128,-1,39
 415 744 415 744 490 660.5 c 128,-1,40
 565 577 565 577 565 470 c 0,41,42
 565 413 565 413 540 362 c 128,-1,43
 515 311 515 311 480 280 c 0,44,45
 406 214 406 214 348 191 c 2,46,-1
 323 181 l 1,47,-1
 323 176 l 1,48,-1
 506 176 l 2,0,1
EndSplineSet
Substitution2: "'sups' Superscript in Latin lookup 1 subtable" twosuperior
EndChar

StartChar: three
Encoding: 51 51 11
Width: 608
GlyphClass: 2
Flags: W
LayerCount: 2
Fore
SplineSet
496 674 m 128,-1,1
 567 604 567 604 567 516.5 c 128,-1,2
 567 429 567 429 489 390 c 1,3,-1
 489 383 l 1,4,5
 499 378 499 378 518.5 361.5 c 128,-1,6
 538 345 538 345 550 329 c 0,7,8
 583 287 583 287 583 233 c 0,9,10
 583 126 583 126 503 56.5 c 128,-1,11
 423 -13 423 -13 302 -13 c 0,12,13
 182 -13 182 -13 102 57 c 0,14,15
 72 84 72 84 49 128 c 0,16,17
 41 144 41 144 38 154 c 2,18,-1
 36 164 l 1,19,20
 25 197 25 197 25 218 c 0,21,22
 25 276 25 276 123 276 c 0,23,24
 163 276 163 276 176 266 c 0,25,26
 193 253 193 253 206 214 c 0,27,28
 216 182 216 182 261 166 c 0,29,30
 280 160 280 160 303 160 c 0,31,32
 356 160 356 160 381 181.5 c 128,-1,33
 406 203 406 203 406 230 c 128,-1,34
 406 257 406 257 381.5 277.5 c 128,-1,35
 357 298 357 298 323.5 298 c 128,-1,36
 290 298 290 298 278 300 c 128,-1,37
 266 302 266 302 252 310 c 0,38,39
 225 323 225 323 225 387 c 0,40,41
 225 457 225 457 262 470 c 0,42,43
 279 475 279 475 314 475 c 0,44,45
 390 475 390 475 390 514 c 0,46,47
 390 535 390 535 370 554 c 128,-1,48
 350 573 350 573 314.5 573 c 128,-1,49
 279 573 279 573 258 561 c 128,-1,50
 237 549 237 549 232 537 c 2,51,-1
 226 525 l 2,52,53
 203 475 203 475 160 475 c 0,54,55
 135 475 135 475 105 493 c 0,56,57
 55 522 55 522 55 560 c 0,58,59
 55 576 55 576 78 628 c 0,60,61
 82 637 82 637 100 659.5 c 128,-1,62
 118 682 118 682 141.5 699 c 128,-1,63
 165 716 165 716 207.5 730 c 128,-1,64
 250 744 250 744 302 744 c 0,65,0
 425 744 425 744 496 674 c 128,-1,1
EndSplineSet
Substitution2: "'sups' Superscript in Latin lookup 1 subtable" threesuperior
EndChar

StartChar: four
Encoding: 52 52 12
Width: 592
GlyphClass: 2
Flags: W
LayerCount: 2
Fore
SplineSet
412.5 728.5 m 128,-1,1
 432 734 432 734 463.5 734 c 128,-1,2
 495 734 495 734 514 727.5 c 128,-1,3
 533 721 533 721 541 706.5 c 128,-1,4
 549 692 549 692 550.5 680 c 128,-1,5
 552 668 552 668 552 645 c 2,6,-1
 552 89 l 2,7,8
 552 50 552 50 542.5 31.5 c 128,-1,9
 533 13 533 13 513.5 7 c 128,-1,10
 494 1 494 1 465 1 c 128,-1,11
 436 1 436 1 419 6 c 128,-1,12
 402 11 402 11 393 18 c 128,-1,13
 384 25 384 25 380 38 c 0,14,15
 374 55 374 55 374 90 c 2,16,-1
 374 212 l 1,17,-1
 103 212 l 2,18,19
 33 212 33 212 20 250 c 0,20,21
 15 266 15 266 15 293 c 128,-1,22
 15 320 15 320 18 333 c 2,23,-1
 101 668 l 2,24,25
 107 691 107 691 111.5 703 c 128,-1,26
 116 715 116 715 129.5 726 c 128,-1,27
 143 737 143 737 164 737 c 128,-1,28
 185 737 185 737 210 730 c 0,29,30
 280 711 280 711 280 666 c 0,31,32
 280 650 280 650 273 624 c 0,33,34
 272 622 272 622 272 621 c 2,35,-1
 211 377 l 1,36,-1
 374 377 l 1,37,-1
 374 650 l 2,38,39
 374 673 374 673 375.5 684 c 128,-1,40
 377 695 377 695 385 709 c 128,-1,0
 393 723 393 723 412.5 728.5 c 128,-1,1
EndSplineSet
EndChar

StartChar: five
Encoding: 53 53 13
Width: 530
GlyphClass: 2
Flags: W
LayerCount: 2
Fore
SplineSet
156 735 m 2,0,-1
 308 734 l 1,1,-1
 402 734 l 2,2,3
 426 734 426 734 437 732.5 c 128,-1,4
 448 731 448 731 463 723 c 0,5,6
 490 709 490 709 490 643 c 0,7,8
 490 583 490 583 465 570 c 0,9,10
 451 562 451 562 440.5 560.5 c 128,-1,11
 430 559 430 559 408 559 c 2,12,-1
 233 559 l 1,13,14
 231 547 231 547 223 483 c 1,15,16
 234 485 234 485 258 485 c 0,17,18
 353 485 353 485 429 413.5 c 128,-1,19
 505 342 505 342 505 238.5 c 128,-1,20
 505 135 505 135 433 60.5 c 128,-1,21
 361 -14 361 -14 254 -14 c 0,22,23
 161 -14 161 -14 86 33 c 0,24,25
 69 44 69 44 61 52 c 2,26,-1
 53 59 l 2,27,28
 15 92 15 92 15 119 c 128,-1,29
 15 146 15 146 52 184 c 0,30,31
 82 217 82 217 110 217 c 128,-1,32
 138 217 138 217 177 185 c 1,33,34
 195 164 195 164 239.5 164 c 128,-1,35
 284 164 284 164 305.5 183 c 128,-1,36
 327 202 327 202 327 235.5 c 128,-1,37
 327 269 327 269 303.5 288.5 c 128,-1,38
 280 308 280 308 250 308 c 128,-1,39
 220 308 220 308 202 290 c 0,40,41
 175 267 175 267 147.5 267 c 128,-1,42
 120 267 120 267 84.5 286 c 128,-1,43
 49 305 49 305 38 316.5 c 128,-1,44
 27 328 27 328 27 341 c 128,-1,45
 27 354 27 354 47 502 c 128,-1,46
 67 650 67 650 68 656 c 128,-1,47
 69 662 69 662 75 677 c 128,-1,48
 81 692 81 692 89.5 704 c 128,-1,49
 98 716 98 716 115.5 725.5 c 128,-1,50
 133 735 133 735 156 735 c 2,0,-1
EndSplineSet
EndChar

StartChar: six
Encoding: 54 54 14
Width: 560
GlyphClass: 2
Flags: W
LayerCount: 2
Fore
SplineSet
535 224 m 0,0,1
 535 123 535 123 462.5 55 c 128,-1,2
 390 -13 390 -13 287 -13 c 0,3,4
 157 -13 157 -13 91 70.5 c 128,-1,5
 25 154 25 154 25 286 c 0,6,7
 25 477 25 477 133.5 605 c 128,-1,8
 242 733 242 733 430 733 c 0,9,10
 468 733 468 733 485.5 723.5 c 128,-1,11
 503 714 503 714 509 695 c 128,-1,12
 515 676 515 676 515 647 c 128,-1,13
 515 618 515 618 510 601 c 128,-1,14
 505 584 505 584 498 575 c 128,-1,15
 491 566 491 566 478 562 c 0,16,17
 461 556 461 556 420 556 c 128,-1,18
 379 556 379 556 340.5 542 c 128,-1,19
 302 528 302 528 280 508 c 0,20,21
 236 467 236 467 226 434 c 2,22,-1
 221 420 l 1,23,24
 258 437 258 437 295 437 c 0,25,26
 394 437 394 437 464.5 371.5 c 128,-1,27
 535 306 535 306 535 224 c 0,0,1
283 151 m 0,28,29
 360 151 360 151 360 218 c 0,30,31
 360 241 360 241 342.5 261 c 128,-1,32
 325 281 325 281 286.5 281 c 128,-1,33
 248 281 248 281 227.5 262.5 c 128,-1,34
 207 244 207 244 207 225 c 128,-1,35
 207 206 207 206 209.5 196 c 128,-1,36
 212 186 212 186 219 174 c 0,37,38
 233 151 233 151 283 151 c 0,28,29
EndSplineSet
EndChar

StartChar: seven
Encoding: 55 55 15
Width: 561
GlyphClass: 2
Flags: W
LayerCount: 2
Fore
SplineSet
458 732 m 2,0,1
 528 732 528 732 540 694 c 0,2,3
 546 678 546 678 546 638 c 128,-1,4
 546 598 546 598 520 538.5 c 128,-1,5
 494 479 494 479 457.5 421 c 128,-1,6
 421 363 421 363 384 304 c 0,7,8
 296 161 296 161 296 74 c 0,9,10
 296 52 296 52 294 41.5 c 128,-1,11
 292 31 292 31 284 19.5 c 128,-1,12
 276 8 276 8 257.5 4 c 128,-1,13
 239 0 239 0 207 0 c 128,-1,14
 175 0 175 0 156.5 4 c 128,-1,15
 138 8 138 8 130 20 c 128,-1,16
 122 32 122 32 120.5 42.5 c 128,-1,17
 119 53 119 53 119 76 c 0,18,19
 119 141 119 141 141 209.5 c 128,-1,20
 163 278 163 278 194 332 c 128,-1,21
 225 386 225 386 256 431.5 c 128,-1,22
 287 477 287 477 309 509.5 c 128,-1,23
 331 542 331 542 331 555 c 1,24,-1
 103 555 l 2,25,26
 63 555 63 555 45 565 c 128,-1,27
 27 575 27 575 21 594 c 128,-1,28
 15 613 15 613 15 644 c 128,-1,29
 15 675 15 675 21 694 c 128,-1,30
 27 713 27 713 40 720 c 0,31,32
 61 732 61 732 98 732 c 2,33,-1
 458 732 l 2,0,1
EndSplineSet
EndChar

StartChar: eight
Encoding: 56 56 16
Width: 582
GlyphClass: 2
Flags: W
LayerCount: 2
Fore
SplineSet
557 235 m 0,0,1
 557 123 557 123 475.5 54.5 c 128,-1,2
 394 -14 394 -14 291 -14 c 128,-1,3
 188 -14 188 -14 106.5 54 c 128,-1,4
 25 122 25 122 25 235 c 0,5,6
 25 277 25 277 45.5 316.5 c 128,-1,7
 66 356 66 356 86 374 c 2,8,-1
 107 393 l 1,9,10
 100 399 100 399 90 409 c 128,-1,11
 80 419 80 419 63.5 452.5 c 128,-1,12
 47 486 47 486 47 522 c 0,13,14
 47 620 47 620 121 684 c 128,-1,15
 195 748 195 748 293 748 c 128,-1,16
 391 748 391 748 463 683 c 128,-1,17
 535 618 535 618 535 517 c 0,18,19
 535 487 535 487 520.5 456 c 128,-1,20
 506 425 506 425 491 409 c 2,21,-1
 476 393 l 1,22,23
 485 386 485 386 498.5 372.5 c 128,-1,24
 512 359 512 359 534.5 318 c 128,-1,25
 557 277 557 277 557 235 c 0,0,1
341 560.5 m 128,-1,27
 324 578 324 578 290.5 578 c 128,-1,28
 257 578 257 578 241 561 c 128,-1,29
 225 544 225 544 225 523.5 c 128,-1,30
 225 503 225 503 242.5 485 c 128,-1,31
 260 467 260 467 292.5 467 c 128,-1,32
 325 467 325 467 341.5 485 c 128,-1,33
 358 503 358 503 358 523 c 128,-1,26
 358 543 358 543 341 560.5 c 128,-1,27
292 155 m 128,-1,35
 336 155 336 155 358 179 c 128,-1,36
 380 203 380 203 380 230.5 c 128,-1,37
 380 258 380 258 357.5 282 c 128,-1,38
 335 306 335 306 291.5 306 c 128,-1,39
 248 306 248 306 225 282.5 c 128,-1,40
 202 259 202 259 202 231 c 128,-1,41
 202 203 202 203 225 179 c 128,-1,34
 248 155 248 155 292 155 c 128,-1,35
EndSplineSet
EndChar

StartChar: nine
Encoding: 57 57 17
Width: 560
GlyphClass: 2
Flags: W
LayerCount: 2
Fore
SplineSet
25 508 m 0,0,1
 25 609 25 609 97 677 c 128,-1,2
 169 745 169 745 272 745 c 0,3,4
 403 745 403 745 469 661.5 c 128,-1,5
 535 578 535 578 535 446 c 0,6,7
 535 255 535 255 427 127 c 128,-1,8
 319 -1 319 -1 132 -1 c 2,9,-1
 126 -1 l 2,10,11
 88 -1 88 -1 72 9 c 0,12,13
 44 26 44 26 44 88 c 0,14,15
 44 158 44 158 82 170 c 0,16,17
 99 176 99 176 140 176 c 128,-1,18
 181 176 181 176 219.5 190 c 128,-1,19
 258 204 258 204 279 224 c 0,20,21
 322 265 322 265 334 298 c 2,22,-1
 339 312 l 1,23,24
 301 295 301 295 264 295 c 0,25,26
 166 295 166 295 95.5 360.5 c 128,-1,27
 25 426 25 426 25 508 c 0,0,1
276 581 m 0,28,29
 199 581 199 581 199 514 c 0,30,31
 199 491 199 491 216.5 471 c 128,-1,32
 234 451 234 451 273 451 c 128,-1,33
 312 451 312 451 332.5 469.5 c 128,-1,34
 353 488 353 488 353 506.5 c 128,-1,35
 353 525 353 525 350.5 535.5 c 128,-1,36
 348 546 348 546 340 558 c 0,37,38
 325 581 325 581 276 581 c 0,28,29
EndSplineSet
EndChar

StartChar: colon
Encoding: 58 58 18
Width: 238
GlyphClass: 2
Flags: W
LayerCount: 2
Fore
SplineSet
193.5 485 m 128,-1,1
 213 465 213 465 213 410 c 0,2,3
 212 386 212 386 210.5 374.5 c 128,-1,4
 209 363 209 363 200 347 c 0,5,6
 185 318 185 318 124.5 318 c 128,-1,7
 64 318 64 318 44.5 337.5 c 128,-1,8
 25 357 25 357 25 413 c 0,9,10
 25 471 25 471 46 487 c 0,11,12
 71 505 71 505 122.5 505 c 128,-1,0
 174 505 174 505 193.5 485 c 128,-1,1
193.5 166.5 m 128,-1,14
 213 147 213 147 213 91 c 0,15,16
 212 67 212 67 210.5 55.5 c 128,-1,17
 209 44 209 44 200 28 c 0,18,19
 185 -1 185 -1 124.5 -1 c 128,-1,20
 64 -1 64 -1 44.5 18.5 c 128,-1,21
 25 38 25 38 25 94 c 0,22,23
 25 152 25 152 46 168 c 0,24,25
 71 186 71 186 122.5 186 c 128,-1,13
 174 186 174 186 193.5 166.5 c 128,-1,14
EndSplineSet
EndChar

StartChar: less
Encoding: 60 60 19
Width: 627
GlyphClass: 2
Flags: W
LayerCount: 2
Fore
SplineSet
54 275 m 2,0,1
 15 294 15 294 15 344 c 128,-1,2
 15 394 15 394 55 414 c 0,3,4
 398 617 398 617 449 648 c 128,-1,5
 500 679 500 679 510 682 c 0,6,7
 521 687 521 687 536 687 c 0,8,9
 563 687 563 687 592 638 c 0,10,11
 611 607 611 607 611 591.5 c 128,-1,12
 611 576 611 576 604 565 c 0,13,14
 595 549 595 549 563 528 c 0,15,16
 265 352 265 352 253 344 c 1,17,-1
 563 160 l 2,18,19
 582 149 582 149 590 142 c 0,20,21
 612 124 612 124 612 103 c 0,22,23
 612 83 612 83 594.5 54.5 c 128,-1,24
 577 26 577 26 563 14 c 128,-1,25
 549 2 549 2 534 2 c 0,26,27
 514 2 514 2 482 21 c 2,28,-1
 54 275 l 2,0,1
EndSplineSet
EndChar

StartChar: equal
Encoding: 61 61 20
Width: 478
GlyphClass: 2
Flags: W
LayerCount: 2
Fore
SplineSet
383 254 m 2,0,-1
 94 254 l 2,1,2
 42 254 42 254 32 286 c 0,3,4
 26 303 26 303 26 329.5 c 128,-1,5
 26 356 26 356 31.5 372.5 c 128,-1,6
 37 389 37 389 49 395 c 0,7,8
 67 404 67 404 95 404 c 2,9,-1
 384 404 l 2,10,11
 437 404 437 404 448 372 c 0,12,13
 453 356 453 356 453 329 c 128,-1,14
 453 302 453 302 448 285.5 c 128,-1,15
 443 269 443 269 431 262.5 c 128,-1,16
 419 256 419 256 410.5 255 c 128,-1,17
 402 254 402 254 383 254 c 2,0,-1
383 42 m 2,18,-1
 94 42 l 2,19,20
 41 42 41 42 30 74 c 0,21,22
 25 91 25 91 25 117.5 c 128,-1,23
 25 144 25 144 30.5 160.5 c 128,-1,24
 36 177 36 177 48 183 c 0,25,26
 67 192 67 192 95 192 c 2,27,-1
 384 192 l 2,28,29
 436 192 436 192 446 160 c 0,30,31
 452 144 452 144 452 117 c 128,-1,32
 452 90 452 90 447 73.5 c 128,-1,33
 442 57 442 57 430 50.5 c 128,-1,34
 418 44 418 44 409.5 43 c 128,-1,35
 401 42 401 42 383 42 c 2,18,-1
EndSplineSet
EndChar

StartChar: greater
Encoding: 62 62 21
Width: 627
GlyphClass: 2
Flags: W
LayerCount: 2
Fore
SplineSet
571 414 m 2,0,1
 611 394 611 394 611 344 c 128,-1,2
 611 294 611 294 572 275 c 2,3,-1
 145 21 l 2,4,5
 94 -12 94 -12 63 14 c 0,6,7
 49 26 49 26 34 50 c 0,8,9
 14 83 14 83 14 98 c 128,-1,10
 14 113 14 113 20 124 c 0,11,12
 31 141 31 141 63 160 c 2,13,-1
 374 344 l 1,14,-1
 64 528 l 2,15,16
 46 539 46 539 37 546 c 0,17,18
 15 565 15 565 15 587 c 0,19,20
 15 607 15 607 32 635 c 0,21,22
 63 687 63 687 90 687 c 0,23,24
 114 687 114 687 144 668 c 2,25,-1
 571 414 l 2,0,1
EndSplineSet
EndChar

StartChar: L
Encoding: 76 76 22
Width: 587
GlyphClass: 2
Flags: W
LayerCount: 2
Fore
SplineSet
217 148 m 1,0,-1
 489 148 l 2,1,2
 522 148 522 148 537 140.5 c 128,-1,3
 552 133 552 133 557 117 c 128,-1,4
 562 101 562 101 562 74.5 c 128,-1,5
 562 48 562 48 557 32 c 128,-1,6
 552 16 552 16 540 10 c 0,7,8
 521 0 521 0 488 0 c 2,9,-1
 128 0 l 2,10,11
 58 0 58 0 46 38 c 0,12,13
 40 54 40 54 40 89 c 2,14,-1
 40 645 l 2,15,16
 40 668 40 668 41.5 679.5 c 128,-1,17
 43 691 43 691 51 706 c 0,18,19
 65 733 65 733 129 733 c 0,20,21
 199 733 199 733 212 696 c 0,22,23
 217 679 217 679 217 644 c 2,24,-1
 217 148 l 1,0,-1
EndSplineSet
EndChar

StartChar: M
Encoding: 77 77 23
Width: 870
GlyphClass: 2
Flags: W
LayerCount: 2
Fore
SplineSet
819 705 m 0,0,1
 827 690 827 690 828.5 678 c 128,-1,2
 830 666 830 666 830 643 c 2,3,-1
 830 88 l 2,4,5
 830 19 830 19 792 7 c 0,6,7
 773 1 773 1 744 1 c 128,-1,8
 715 1 715 1 698 6 c 128,-1,9
 681 11 681 11 672 18 c 128,-1,10
 663 25 663 25 658 38 c 0,11,12
 653 55 653 55 653 90 c 2,13,-1
 653 425 l 1,14,15
 628 394 628 394 580 326.5 c 128,-1,16
 532 259 532 259 519 242 c 128,-1,17
 506 225 506 225 501 218.5 c 128,-1,18
 496 212 496 212 476.5 200.5 c 128,-1,19
 457 189 457 189 434.5 189 c 128,-1,20
 412 189 412 189 393.5 199.5 c 128,-1,21
 375 210 375 210 367 220 c 2,22,-1
 359 231 l 2,23,24
 339 256 339 256 280 337.5 c 128,-1,25
 221 419 221 419 216 425 c 1,26,-1
 216 88 l 2,27,28
 216 65 216 65 214.5 53.5 c 128,-1,29
 213 42 213 42 205 28 c 0,30,31
 190 1 190 1 127 1 c 0,32,33
 66 1 66 1 51 28 c 0,34,35
 43 42 43 42 41.5 54 c 128,-1,36
 40 66 40 66 40 90 c 2,37,-1
 40 645 l 2,38,39
 40 668 40 668 41.5 679.5 c 128,-1,40
 43 691 43 691 51 706 c 0,41,42
 66 732 66 732 129 732 c 0,43,44
 156 732 156 732 175.5 725.5 c 128,-1,45
 195 719 195 719 201 712 c 2,46,-1
 207 706 l 1,47,-1
 434 408 l 1,48,49
 604 633 604 633 661 705 c 0,50,51
 678 732 678 732 741.5 732 c 128,-1,52
 805 732 805 732 819 705 c 0,0,1
EndSplineSet
EndChar

StartChar: P
Encoding: 80 80 24
Width: 632
GlyphClass: 2
Flags: W
LayerCount: 2
Fore
SplineSet
607 467 m 128,-1,1
 607 402 607 402 581 349.5 c 128,-1,2
 555 297 555 297 514 266 c 0,3,4
 431 202 431 202 342 202 c 2,5,-1
 217 202 l 1,6,-1
 217 89 l 2,7,8
 217 66 217 66 215.5 54.5 c 128,-1,9
 214 43 214 43 206 28 c 0,10,11
 192 1 192 1 128 1 c 0,12,13
 58 1 58 1 46 38 c 0,14,15
 40 55 40 55 40 90 c 2,16,-1
 40 645 l 2,17,18
 40 668 40 668 41.5 679.5 c 128,-1,19
 43 691 43 691 51 706 c 0,20,21
 65 733 65 733 129 733 c 2,22,-1
 343 733 l 2,23,24
 431 733 431 733 514 669 c 0,25,26
 555 638 555 638 581 585 c 128,-1,0
 607 532 607 532 607 467 c 128,-1,1
402 401 m 128,-1,28
 431 423 431 423 431 467 c 128,-1,29
 431 511 431 511 402 533.5 c 128,-1,30
 373 556 373 556 342 556 c 2,31,-1
 217 556 l 1,32,-1
 217 379 l 1,33,-1
 343 379 l 2,34,27
 373 379 373 379 402 401 c 128,-1,28
EndSplineSet
EndChar

StartChar: m
Encoding: 109 109 25
Width: 851
GlyphClass: 2
Flags: W
LayerCount: 2
Fore
SplineSet
212 457 m 1,0,1
 259 528 259 528 325 528 c 0,2,3
 427 528 427 528 477 441 c 1,4,5
 488 456 488 456 503.5 472.5 c 128,-1,6
 519 489 519 489 553 508.5 c 128,-1,7
 587 528 587 528 623 528 c 0,8,9
 703 528 703 528 757 466.5 c 128,-1,10
 811 405 811 405 811 263 c 2,11,-1
 811 88 l 2,12,13
 811 65 811 65 809.5 53.5 c 128,-1,14
 808 42 808 42 800 27 c 0,15,16
 787 0 787 0 723 0 c 0,17,18
 660 0 660 0 646 28 c 0,19,20
 639 43 639 43 637.5 54.5 c 128,-1,21
 636 66 636 66 636 89 c 2,22,-1
 636 264 l 2,23,24
 636 351 636 351 574 351 c 0,25,26
 539 351 539 351 526.5 328 c 128,-1,27
 514 305 514 305 514 263 c 2,28,-1
 514 88 l 2,29,30
 514 64 514 64 512.5 53 c 128,-1,31
 511 42 511 42 503 27 c 0,32,33
 489 0 489 0 425 0 c 0,34,35
 362 0 362 0 348 28 c 0,36,37
 341 43 341 43 339.5 54.5 c 128,-1,38
 338 66 338 66 338 89 c 2,39,-1
 338 264 l 2,40,41
 338 351 338 351 276 351 c 0,42,43
 216 351 216 351 216 264 c 2,44,-1
 216 87 l 2,45,46
 216 64 216 64 214.5 52.5 c 128,-1,47
 213 41 213 41 205 26 c 0,48,49
 190 0 190 0 127 0 c 256,50,51
 64 0 64 0 50 27 c 0,52,53
 43 42 43 42 41.5 53 c 128,-1,54
 40 64 40 64 40 88 c 2,55,-1
 40 440 l 2,56,57
 40 463 40 463 41.5 474.5 c 128,-1,58
 43 486 43 486 51 500 c 0,59,60
 66 527 66 527 122 527 c 128,-1,61
 178 527 178 527 195 509 c 128,-1,62
 212 491 212 491 212 457 c 1,0,1
EndSplineSet
EndChar

StartChar: degree
Encoding: 176 176 26
Width: 407
GlyphClass: 2
Flags: W
LayerCount: 2
Fore
SplineSet
79.5 716.5 m 128,-1,1
 134 768 134 768 204 768 c 128,-1,2
 274 768 274 768 328 717 c 128,-1,3
 382 666 382 666 382 586 c 128,-1,4
 382 506 382 506 326.5 456.5 c 128,-1,5
 271 407 271 407 203.5 407 c 128,-1,6
 136 407 136 407 80.5 457.5 c 128,-1,7
 25 508 25 508 25 586.5 c 128,-1,0
 25 665 25 665 79.5 716.5 c 128,-1,1
203 523 m 128,-1,9
 225 523 225 523 246 539 c 128,-1,10
 267 555 267 555 267 587.5 c 128,-1,11
 267 620 267 620 247 636 c 128,-1,12
 227 652 227 652 204 652 c 128,-1,13
 181 652 181 652 160.5 635.5 c 128,-1,14
 140 619 140 619 140 587 c 128,-1,15
 140 555 140 555 160.5 539 c 128,-1,8
 181 523 181 523 203 523 c 128,-1,9
EndSplineSet
EndChar

StartChar: mu
Encoding: 181 181 27
Width: 601
GlyphClass: 2
Flags: W
LayerCount: 2
Fore
SplineSet
389 69 m 1,0,1
 352 7 352 7 290 7 c 0,2,3
 257 7 257 7 238.5 18.5 c 128,-1,4
 220 30 220 30 214 32 c 1,5,-1
 214 -134 l 2,6,7
 214 -157 214 -157 212.5 -168.5 c 128,-1,8
 211 -180 211 -180 203 -194 c 128,-1,9
 195 -208 195 -208 176 -214 c 128,-1,10
 157 -220 157 -220 126 -220 c 128,-1,11
 95 -220 95 -220 76.5 -214 c 128,-1,12
 58 -208 58 -208 50.5 -193.5 c 128,-1,13
 43 -179 43 -179 41.5 -167.5 c 128,-1,14
 40 -156 40 -156 40 -133 c 2,15,-1
 40 441 l 2,16,17
 40 464 40 464 41.5 475 c 128,-1,18
 43 486 43 486 50.5 500.5 c 128,-1,19
 58 515 58 515 77 521 c 128,-1,20
 96 527 96 527 127 527 c 128,-1,21
 158 527 158 527 177 521 c 128,-1,22
 196 515 196 515 203.5 500.5 c 128,-1,23
 211 486 211 486 212.5 474.5 c 128,-1,24
 214 463 214 463 214 440 c 2,25,-1
 214 266 l 2,26,27
 214 225 214 225 237 202.5 c 128,-1,28
 260 180 260 180 299.5 180 c 128,-1,29
 339 180 339 180 363 203.5 c 128,-1,30
 387 227 387 227 387 267 c 2,31,-1
 387 441 l 2,32,33
 387 464 387 464 388.5 475.5 c 128,-1,34
 390 487 390 487 397.5 501.5 c 128,-1,35
 405 516 405 516 424 522 c 128,-1,36
 443 528 443 528 474 528 c 128,-1,37
 505 528 505 528 524 522 c 128,-1,38
 543 516 543 516 550.5 501 c 128,-1,39
 558 486 558 486 559.5 474.5 c 128,-1,40
 561 463 561 463 561 440 c 2,41,-1
 561 93 l 2,42,43
 561 70 561 70 559.5 58.5 c 128,-1,44
 558 47 558 47 550 33 c 0,45,46
 537 7 537 7 473 7 c 0,47,48
 414 7 414 7 399 30 c 0,49,50
 389 46 389 46 389 69 c 1,0,1
EndSplineSet
EndChar

StartChar: onequarter
Encoding: 188 188 28
Width: 786
GlyphClass: 3
Flags: W
LayerCount: 2
Fore
SplineSet
635.5 416.5 m 128,-1,1
 648 420 648 420 668.5 420 c 128,-1,2
 689 420 689 420 701.5 416 c 128,-1,3
 714 412 714 412 719 403 c 0,4,5
 726 390 726 390 726 367 c 2,6,-1
 726 48 l 2,7,8
 726 13 726 13 702 6 c 0,9,10
 689 3 689 3 668.5 3 c 128,-1,11
 648 3 648 3 635.5 7 c 128,-1,12
 623 11 623 11 618 18 c 0,13,14
 611 29 611 29 611 49 c 2,15,-1
 611 117 l 1,16,-1
 463 117 l 2,17,18
 442 117 442 117 429 129.5 c 128,-1,19
 416 142 416 142 416 163.5 c 128,-1,20
 416 185 416 185 421 207 c 2,21,-1
 463 376 l 2,22,23
 473 421 473 421 503 421 c 0,24,25
 535 421 535 421 557 408.5 c 128,-1,26
 579 396 579 396 579 376 c 2,27,-1
 570 328 l 1,28,-1
 544 227 l 1,29,-1
 611 227 l 1,30,-1
 611 369 l 2,31,32
 611 393 611 393 617 403 c 128,-1,0
 623 413 623 413 635.5 416.5 c 128,-1,1
511 761 m 2,33,34
 524 784 524 784 536.5 784 c 128,-1,35
 549 784 549 784 573 771 c 128,-1,36
 597 758 597 758 597 743 c 0,37,38
 597 736 597 736 590 724 c 2,39,-1
 203 -7 l 1,40,-1
 201 -10 l 2,41,42
 190 -30 190 -30 178 -30 c 128,-1,43
 166 -30 166 -30 142 -17.5 c 128,-1,44
 118 -5 118 -5 118 7 c 128,-1,45
 118 19 118 19 125 31 c 2,46,-1
 511 761 l 2,33,34
145 396 m 2,47,-1
 145 582 l 1,48,49
 126 569 126 569 109 569 c 128,-1,50
 92 569 92 569 71 588.5 c 128,-1,51
 50 608 50 608 50 629 c 128,-1,52
 50 650 50 650 71 668 c 0,53,54
 159 747 159 747 162 750 c 0,55,56
 180 768 180 768 203 768 c 0,57,58
 260 768 260 768 260 720 c 2,59,-1
 260 396 l 2,60,61
 260 360 260 360 235 354 c 0,62,63
 222 350 222 350 198.5 350 c 128,-1,64
 175 350 175 350 162 358 c 128,-1,65
 149 366 149 366 147 374 c 128,-1,66
 145 382 145 382 145 396 c 2,47,-1
EndSplineSet
Ligature2: "'frac' Diagonal Fractions in Latin lookup 2 subtable" one slash four
EndChar

StartChar: onehalf
Encoding: 189 189 29
Width: 804
GlyphClass: 3
Flags: W
LayerCount: 2
Fore
SplineSet
626 116 m 1,0,-1
 697 116 l 2,1,2
 732 116 732 116 740 92 c 0,3,4
 744 79 744 79 744 55 c 128,-1,5
 744 31 744 31 736.5 18 c 128,-1,6
 729 5 729 5 721 3 c 128,-1,7
 713 1 713 1 697 1 c 2,8,-1
 481 1 l 2,9,10
 458 1 458 1 437 14.5 c 128,-1,11
 416 28 416 28 416 61 c 128,-1,12
 416 94 416 94 436 118.5 c 128,-1,13
 456 143 456 143 485 160 c 128,-1,14
 514 177 514 177 543 192 c 0,15,16
 612 229 612 229 612 276 c 0,17,18
 612 289 612 289 600 299 c 128,-1,19
 588 309 588 309 571.5 309 c 128,-1,20
 555 309 555 309 545 298 c 0,21,22
 532 283 532 283 532 265.5 c 128,-1,23
 532 248 532 248 529 237.5 c 128,-1,24
 526 227 526 227 511.5 218.5 c 128,-1,25
 497 210 497 210 470.5 210 c 128,-1,26
 444 210 444 210 431.5 220.5 c 128,-1,27
 419 231 419 231 417.5 240.5 c 128,-1,28
 416 250 416 250 416 267 c 0,29,30
 416 329 416 329 460 376.5 c 128,-1,31
 504 424 504 424 571 424 c 128,-1,32
 638 424 638 424 683 378 c 128,-1,33
 728 332 728 332 728 266 c 0,34,35
 728 204 728 204 683 161 c 0,36,37
 651 131 651 131 626 116 c 1,0,-1
511 761 m 2,38,39
 524 784 524 784 536.5 784 c 128,-1,40
 549 784 549 784 573 771 c 128,-1,41
 597 758 597 758 597 743 c 0,42,43
 597 736 597 736 590 724 c 2,44,-1
 203 -7 l 1,45,-1
 201 -10 l 2,46,47
 190 -30 190 -30 178 -30 c 128,-1,48
 166 -30 166 -30 142 -17.5 c 128,-1,49
 118 -5 118 -5 118 7 c 128,-1,50
 118 19 118 19 125 31 c 2,51,-1
 511 761 l 2,38,39
145 396 m 2,52,-1
 145 582 l 1,53,54
 126 569 126 569 109 569 c 128,-1,55
 92 569 92 569 71 588.5 c 128,-1,56
 50 608 50 608 50 629 c 128,-1,57
 50 650 50 650 71 668 c 0,58,59
 159 747 159 747 162 750 c 0,60,61
 180 768 180 768 203 768 c 0,62,63
 260 768 260 768 260 720 c 2,64,-1
 260 396 l 2,65,66
 260 360 260 360 235 354 c 0,67,68
 222 350 222 350 198.5 350 c 128,-1,69
 175 350 175 350 162 358 c 128,-1,70
 149 366 149 366 147 374 c 128,-1,71
 145 382 145 382 145 396 c 2,52,-1
EndSplineSet
Ligature2: "'frac' Diagonal Fractions in Latin lookup 2 subtable" one slash two
EndChar

StartChar: threequarters
Encoding: 190 190 30
Width: 842
GlyphClass: 3
Flags: W
LayerCount: 2
Fore
SplineSet
328 565 m 1,0,1
 372 533 372 533 372 479 c 128,-1,2
 372 425 372 425 328.5 382 c 128,-1,3
 285 339 285 339 208 339 c 256,4,5
 131 339 131 339 82 394 c 0,6,7
 72 406 72 406 61 429 c 128,-1,8
 50 452 50 452 50 475 c 0,9,10
 50 516 50 516 112 516 c 0,11,12
 153 516 153 516 162 487 c 0,13,14
 163 482 163 482 164.5 477 c 128,-1,15
 166 472 166 472 170.5 465.5 c 128,-1,16
 175 459 175 459 180 454 c 0,17,18
 193 443 193 443 211 443 c 128,-1,19
 229 443 229 443 243 453.5 c 128,-1,20
 257 464 257 464 257 477 c 128,-1,21
 257 490 257 490 256 494 c 128,-1,22
 255 498 255 498 251 503 c 0,23,24
 243 513 243 513 220 513 c 128,-1,25
 197 513 197 513 191 514 c 128,-1,26
 185 515 185 515 178 519 c 128,-1,27
 171 523 171 523 168 533 c 128,-1,28
 165 543 165 543 165 559 c 128,-1,29
 165 575 165 575 172.5 583.5 c 128,-1,30
 180 592 180 592 187.5 593.5 c 128,-1,31
 195 595 195 595 208 595 c 2,32,-1
 212 595 l 2,33,34
 248 595 248 595 248 631 c 0,35,36
 248 645 248 645 236.5 653 c 128,-1,37
 225 661 225 661 211 661 c 128,-1,38
 197 661 197 661 188.5 656.5 c 128,-1,39
 180 652 180 652 178 647 c 0,40,41
 169 630 169 630 169 626 c 0,42,43
 156 604 156 604 132.5 604 c 128,-1,44
 109 604 109 604 88 622 c 128,-1,45
 67 640 67 640 67 664.5 c 128,-1,46
 67 689 67 689 107 728.5 c 128,-1,47
 147 768 147 768 212.5 768 c 128,-1,48
 278 768 278 768 320.5 729 c 128,-1,49
 363 690 363 690 363 640 c 128,-1,50
 363 590 363 590 328 565 c 1,0,1
691 416.5 m 128,-1,52
 704 420 704 420 724.5 420 c 128,-1,53
 745 420 745 420 757.5 416 c 128,-1,54
 770 412 770 412 775 403 c 0,55,56
 782 390 782 390 782 367 c 2,57,-1
 782 48 l 2,58,59
 782 13 782 13 758 6 c 0,60,61
 745 3 745 3 724.5 3 c 128,-1,62
 704 3 704 3 691.5 7 c 128,-1,63
 679 11 679 11 674 18 c 0,64,65
 667 29 667 29 667 49 c 2,66,-1
 666 117 l 1,67,-1
 519 117 l 2,68,69
 498 117 498 117 485 129.5 c 128,-1,70
 472 142 472 142 472 166.5 c 128,-1,71
 472 191 472 191 477 207 c 2,72,-1
 519 376 l 2,73,74
 529 421 529 421 559 421 c 0,75,76
 591 421 591 421 613 408.5 c 128,-1,77
 635 396 635 396 635 376 c 2,78,-1
 626 328 l 1,79,-1
 600 227 l 1,80,-1
 666 227 l 1,81,-1
 666 368 l 2,82,83
 666 393 666 393 672 403 c 128,-1,51
 678 413 678 413 691 416.5 c 128,-1,52
567 761 m 2,84,85
 580 784 580 784 592.5 784 c 128,-1,86
 605 784 605 784 629 771 c 128,-1,87
 653 758 653 758 653 743 c 0,88,89
 653 736 653 736 646 724 c 2,90,-1
 259 -7 l 1,91,-1
 257 -10 l 2,92,93
 246 -30 246 -30 234 -30 c 128,-1,94
 222 -30 222 -30 198 -17.5 c 128,-1,95
 174 -5 174 -5 174 7 c 128,-1,96
 174 19 174 19 181 31 c 2,97,-1
 567 761 l 2,84,85
EndSplineSet
Ligature2: "'frac' Diagonal Fractions in Latin lookup 2 subtable" three slash four
EndChar
